<?xml version="1.0" encoding="UTF-8" standalone="no"?>
<svg
   xmlns:dc="http://purl.org/dc/elements/1.1/"
   xmlns:cc="http://creativecommons.org/ns#"
   xmlns:rdf="http://www.w3.org/1999/02/22-rdf-syntax-ns#"
   xmlns:svg="http://www.w3.org/2000/svg"
   xmlns="http://www.w3.org/2000/svg"
   xmlns:sodipodi="http://sodipodi.sourceforge.net/DTD/sodipodi-0.dtd"
   xmlns:inkscape="http://www.inkscape.org/namespaces/inkscape"
   sodipodi:docname="logo.svg"
   inkscape:version="1.0 (4035a4fb49, 2020-05-01)"
   id="svg8"
   version="1.1"
   viewBox="0 0 210 297"
   height="297mm"
   width="210mm">
  <defs
     id="defs2" />
  <sodipodi:namedview
     inkscape:window-maximized="1"
     inkscape:window-y="-8"
     inkscape:window-x="-8"
     inkscape:window-height="837"
     inkscape:window-width="1600"
     inkscape:snap-nodes="true"
     showgrid="false"
     inkscape:document-rotation="0"
     inkscape:current-layer="layer1"
     inkscape:document-units="mm"
     inkscape:cy="675.54556"
     inkscape:cx="396.85039"
     inkscape:zoom="0.35"
     inkscape:pageshadow="2"
     inkscape:pageopacity="0.0"
     borderopacity="1.0"
     bordercolor="#666666"
     pagecolor="#ffffff"
     id="base" />
  <metadata
     id="metadata5">
    <rdf:RDF>
      <cc:Work
         rdf:about="">
        <dc:format>image/svg+xml</dc:format>
        <dc:type
           rdf:resource="http://purl.org/dc/dcmitype/StillImage" />
        <dc:title></dc:title>
      </cc:Work>
    </rdf:RDF>
  </metadata>
  <g
     id="layer1"
     inkscape:groupmode="layer"
     inkscape:label="Layer 1">
    <path
       id="path66"
       d="m 49.234899,298.50394 c 1.67e-4,-0.62979 0.466818,-10.3993 1.036985,-21.70999 0.570177,-11.3107 1.040248,-21.70875 1.044605,-23.1068 0.0069,-2.09562 -1.138648,-2.33262 -6.522762,-1.34983 -8.923506,1.62881 -9.736772,1.44515 -11.186629,-2.52679 -1.613895,-4.42128 -2.365091,-8.92901 -2.918955,-17.51596 l -0.442522,-6.86073 -2.086587,7.55501 c -1.147628,4.15527 -2.85807,9.6995 -3.800983,12.32052 -0.942912,2.62098 -2.513427,7.61309 -3.49002,11.09347 -1.403304,5.00119 -12.4768552,28.60889 -13.4936046,28.76699 -0.1308688,0.0202 0.1414748,-7.32428 0.605208,-16.32142 0.4637332,-8.99712 0.8450931,-17.28416 0.8474686,-18.41559 0.00197,-1.13149 -0.9820535,-4.74457 -2.1876396,-8.02905 -1.2055762,-3.28451 -2.886507,-9.18265 -3.735395,-13.10695 l -1.5434282,-7.13509 0.9338044,-6.33547 C 2.8080336,212.34174 4.6920441,201.26304 6.4811433,191.20695 9.5451517,173.98478 9.698228,172.74916 9.1173663,169.92764 6.0857277,155.20122 6.5578392,117.95617 10.017411,98.923365 10.801875,94.607673 15.716795,75.821814 20.939454,57.176991 L 30.435207,23.277329 36.526024,11.441521 C 39.875969,4.931788 42.61489,0.13827641 42.612504,0.78920135 42.610533,1.440086 42.218281,9.5383772 41.741753,18.78535 41.265217,28.032248 40.87532,35.844112 40.87532,36.144961 c 0,0.300929 0.744496,2.259747 1.654436,4.353197 1.869373,4.300705 5.311627,17.897494 5.311627,20.980707 0,1.116902 -0.587762,5.375871 -1.306135,9.464354 -1.094727,6.230438 -1.15309,6.924065 -0.360563,4.285278 1.344371,-4.476148 11.767481,-4.742753 11.767481,-0.30093 0,2.505243 0.09413,2.523493 0.783686,0.151467 0.640889,-2.204596 3.258788,-2.794812 14.367499,-3.239157 12.20747,-0.488092 13.695404,-0.223178 14.685057,2.615342 1.276387,3.661061 2.482338,11.290516 2.77543,17.558659 0.112388,2.403524 0.339685,4.370036 0.505113,4.370036 0.165426,0 1.705316,-4.95026 3.421968,-11.000663 3.658305,-12.893778 5.620731,-15.984161 9.383791,-14.777504 2.79322,0.895696 4.87541,5.131341 6.1024,12.413822 l 0.65024,3.859222 1.97186,-7.187488 1.97189,-7.187569 8.00111,-0.679205 c 7.79078,-0.661439 8.02941,-0.571039 9.0766,3.438446 l 1.07546,4.117649 5.69132,-20.520491 c 6.85237,-24.706828 8.00148,-26.987119 13.57841,-26.944377 4.23458,0.03223 5.19857,1.161256 9.13462,10.696996 l 2.3427,5.675632 3.05599,-10.933912 c 2.74188,-9.810041 3.27511,-11.010091 5.18786,-11.675719 2.56696,-0.89328 4.41057,3.076766 5.41716,11.665285 0.87052,7.427586 0.69694,21.499458 -0.35984,29.171614 -0.41006,2.977141 -0.74572,5.657343 -0.74591,5.956015 -1.8e-4,0.298915 3.7223,-0.06244 8.2722,-0.802638 l 8.27253,-1.34568 1.81004,4.706174 1.81004,4.706173 1.49884,-4.12341 c 2.07334,-5.703912 6.00819,-7.018854 8.11008,-2.710214 2.86191,5.866584 4.27726,20.548007 3.8858,40.307638 -0.17228,8.69652 -1.86196,44.90399 -3.90471,83.67367 l -0.51779,9.82715 -6.25206,22.42231 -6.25206,22.42228 h -5.40571 c -3.49409,0 -5.40571,-0.68438 -5.40571,-1.93529 0,-1.33405 -0.20931,-1.33405 -0.67373,0 -1.01736,2.92254 -11.4195,2.5626 -11.60537,-0.40164 -0.11637,-1.85594 -0.25379,-1.86198 -0.6677,-0.0321 -0.38945,1.72447 -3.34752,2.30837 -11.70454,2.31025 l -11.18339,0.002 0.52302,-9.45328 c 0.28765,-5.19934 0.47446,-10.18546 0.41512,-11.08048 -0.0594,-0.89489 -1.12668,2.10248 -2.37185,6.66085 -3.28471,12.02475 -5.96639,16.15111 -10.4491,16.07815 -2.21017,-0.0362 -4.47133,-1.23413 -5.71488,-3.0283 -2.49803,-3.60418 -6.15595,-13.75387 -8.03738,-22.30145 l -1.38752,-6.30361 1.53025,-9.09586 c 0.84162,-5.00267 2.77224,-16.05518 4.29028,-24.56108 l 2.76004,-15.46529 -1.07417,-6.56678 c -0.59081,-3.6111 -1.07418,-7.74914 -1.07418,-9.19505 0,-5.03103 -0.59037,-4.50777 -2.46631,2.18595 -1.03812,3.70416 -1.93185,6.91866 -1.98608,7.14325 -0.0542,0.22479 -0.54874,9.41464 -1.09891,20.42232 -0.55016,11.00767 -1.05438,20.25917 -1.12047,20.55885 -0.066,0.29972 -2.86234,10.33491 -6.2139,22.30037 l -6.09374,21.75537 h -5.49396 -5.493969 l 0.232916,-4.98123 c 0.203327,-4.34805 0.148819,-4.8048 -0.428741,-3.5933 -3.829035,8.03198 -6.049764,10.76887 -8.821961,10.87244 -3.835373,0.14332 -6.012673,-4.53134 -8.204117,-17.6143 l -1.541043,-9.19996 -3.237872,11.70467 c -1.787236,6.46077 -3.988547,12.7561 -4.913402,14.05138 -0.935323,1.31003 -2.905215,6.97171 -4.459062,12.81595 -2.247303,8.45248 -3.954255,12.73947 -8.860649,22.25372 -3.342404,6.48145 -6.076969,11.26915 -6.076801,10.63933 z m 23.021235,-74.62949 c 0.11423,-0.7133 0.566362,-8.63486 1.004734,-17.60342 l 0.79705,-16.30644 0.972877,3.71836 c 2.96968,11.35021 7.984783,6.03258 10.323449,-10.94614 2.857321,-20.7441 4.765944,-60.19991 3.94227,-81.49613 -0.566323,-14.642631 -1.813594,-20.35456 -4.656819,-21.326313 -1.742004,-0.595373 -2.498632,0.06727 -3.637271,3.185131 -1.713172,4.691189 -1.813761,4.753994 -1.813761,1.132614 0,-2.314011 -0.637066,-2.804319 -3.643766,-2.804319 h -3.643746 l -0.341085,7.010758 c -0.187585,3.855877 -1.917721,39.321459 -3.844756,78.812399 -1.927026,39.49093 -3.503681,72.06583 -3.503681,72.38871 0,0.96534 7.819227,-14.35834 8.044505,-15.76521 z m 3.837185,-59.71985 -0.73439,-3.27166 1.14535,-22.15917 c 0.940271,-18.19153 1.298734,-22.61503 2.001948,-24.70509 1.308028,-3.88763 2.683339,-3.32428 3.143159,1.28738 0.828779,8.31213 -0.533451,38.425 -2.158178,47.70783 -0.918911,5.25018 -2.366363,5.7361 -3.397889,1.14071 z m -49.019697,52.84375 c 2.640638,-5.11473 3.155597,-6.81178 3.534414,-11.6475 0.372873,-4.76012 0.695476,-5.86342 2.027998,-6.93596 2.132522,-1.7165 5.558482,-11.14646 6.713059,-18.47771 2.279613,-14.47497 3.117845,-36.18508 1.946079,-50.40354 -0.91829,-11.14279 -2.720923,-18.06371 -6.982643,-26.80874 -3.777364,-7.751157 -4.582912,-10.683703 -4.582912,-16.684072 0,-12.947719 4.550958,-12.770545 8.581475,0.333962 l 2.041768,6.638525 2.705743,-15.573979 2.705743,-15.573937 -0.790072,-3.437237 C 44.238522,55.227237 40.739395,45.775894 39.424083,43.436826 38.886345,42.480542 38.891589,41.40316 39.495448,28.803181 39.853939,21.32246 40.099463,14.945308 40.041041,14.63173 c -0.05835,-0.31382 -1.886553,3.019518 -4.062522,7.406835 -3.324958,6.703987 -3.988005,8.702607 -4.154882,12.524002 -0.165041,3.779538 -0.64292,5.272338 -2.831052,8.843966 -4.723373,7.709701 -7.611506,26.580442 -7.6188,49.780208 -0.0069,21.300249 1.651528,30.487279 7.817385,43.310759 3.672578,7.63808 4.562825,11.59048 4.22723,18.76753 -0.588047,12.57581 -5.277197,10.75843 -9.77822,-3.78981 l -2.083985,-6.73589 -2.678557,15.54988 -2.678558,15.54985 0.757061,3.39123 c 0.921475,4.12781 5.440229,16.23889 6.058862,16.23889 0.567377,0 0.55548,2.30308 -0.07728,14.95624 -0.282802,5.65534 -0.516053,11.39071 -0.518321,12.74529 -0.005,2.79993 0.07974,2.68797 4.654228,-6.17246 z m 26.601837,-21.63782 c 1.228169,-2.83756 1.480287,-2.9604 1.480287,-0.72091 0,2.18002 0.698689,2.69914 3.632469,2.69914 h 3.632461 l 0.520567,-9.81499 c 0.811087,-15.29279 5.101716,-103.485792 5.101716,-104.864707 0,-0.677232 -1.628561,-1.23127 -3.619025,-1.23127 h -3.619025 l -0.723579,14.4889 c -0.397968,7.968897 -1.256723,25.292447 -1.908356,38.496827 -1.285121,26.04123 -1.890043,31.27445 -3.646074,31.54242 -1.37873,0.21029 -2.157753,-3.22376 -2.156945,-9.50838 3.45e-4,-3.86789 2.407792,-55.55345 3.344731,-71.812799 0.177599,-3.082005 -0.09542,-3.295837 -3.579293,-2.804321 l -3.77156,0.532125 -1.79518,36.455905 c -2.280994,46.3213 -2.474542,53.70224 -1.695421,64.65258 1.178145,16.55846 4.714146,21.33466 8.802227,11.88948 z m 50.686121,-0.26387 c 1.2975,-2.12468 2.43978,-4.56393 2.5384,-5.4204 0.19209,-1.66827 -0.81561,-22.28512 -1.19911,-24.53282 -0.12649,-0.74141 -0.99609,-0.11039 -1.93246,1.4022 -2.68977,4.34502 -4.93852,3.65143 -5.961371,-1.83873 -0.470209,-2.52386 -0.85492,-6.7303 -0.85492,-9.34765 v -4.75883 h 6.257191 c 7.18922,0 6.7387,1.17278 7.22375,-18.80423 0.87937,-36.217014 -1.45477,-52.362555 -7.58044,-52.434827 -2.51658,-0.03223 -3.144934,0.68545 -5.068597,5.76861 -1.257915,3.323916 -2.741326,9.162823 -3.472839,13.669425 -3.261066,20.090532 -4.810289,53.607402 -3.440834,74.441232 1.626718,24.74783 6.703211,32.97181 13.49123,21.85602 z m -6.01625,-71.47134 c 0,-1.46916 0.527901,-5.67563 1.173118,-9.34765 0.859942,-4.89411 1.464322,-6.67647 2.263972,-6.67647 1.38814,0 2.48405,5.7736 2.48405,13.08674 v 5.60859 h -2.96057 c -2.333845,0 -2.96057,-0.56547 -2.96057,-2.67121 z m 52.59376,74.38551 c 4.97222,-4.12497 8.70757,-27.85622 8.70757,-55.32068 0,-19.45785 -1.82376,-28.43557 -8.64355,-42.54865 -3.09446,-6.403822 -4.08202,-11.87408 -3.31776,-18.37749 1.01448,-8.63255 5.82989,-5.681473 8.77438,5.377242 0.83334,3.129741 1.61703,5.438112 1.74152,5.12969 0.1245,-0.308583 1.38525,-7.059018 2.80166,-15.001285 2.99524,-16.795017 3.00016,-16.606604 -0.69399,-26.526462 -3.17104,-8.515079 -5.66937,-11.091304 -9.73662,-10.040027 -6.74907,1.744379 -10.7826,19.282251 -11.32491,49.240993 -0.38526,21.284179 1.84121,34.913389 7.4685,45.717949 3.60924,6.92979 4.65958,11.20616 4.50445,18.33966 -0.30771,14.15027 -6.37612,11.47809 -10.2861,-4.52956 -0.63881,-2.61526 -1.27439,-4.48295 -1.41239,-4.15036 -0.13801,0.33275 -1.41261,7.11844 -2.83244,15.07968 -2.47765,13.89232 -2.55747,14.61765 -1.98331,18.02311 0.70649,4.19028 4.02787,13.8045 5.8442,16.9169 2.84001,4.86661 6.58138,5.82796 10.38879,2.66929 z m -31.55135,-34.69061 c 0.90756,-18.71025 1.87494,-36.35238 2.14974,-39.20479 0.93647,-9.72013 2.94689,-11.81817 4.97259,-5.18932 0.6442,2.10804 1.21387,3.57715 1.26591,3.2647 0.29736,-1.78479 3.30984,-35.388757 3.30984,-36.920876 0,-3.249266 -1.37528,-5.925078 -3.08173,-5.99602 -1.37223,-0.0572 -2.79945,2.19086 -4.66827,7.352698 -0.1438,0.397612 -0.16411,-0.639565 -0.0451,-2.3039 0.19248,-2.692326 -0.19755,-2.967272 -3.53691,-2.493116 l -3.75325,0.532888 -2.72066,55.151246 c -1.49635,30.33311 -2.72589,56.2028 -2.73231,57.48805 -0.009,1.72288 0.93451,2.33693 3.58921,2.33693 h 3.60087 z m 49.2802,27.00779 c 0.18729,-3.85597 1.44722,-29.60758 2.79984,-57.22593 1.35263,-27.61834 2.45931,-50.543448 2.45931,-50.944725 0,-0.401239 -1.6346,-0.729643 -3.63246,-0.729643 h -3.63248 l -0.52056,9.815077 c -0.81109,15.292791 -5.10171,103.485791 -5.10171,104.864691 0,0.67725 1.63969,1.23123 3.64375,1.23123 h 3.64377 z m 12.76689,-28.7359 c 0.94727,-19.66069 1.99665,-38.19005 2.33198,-41.17634 1.11915,-9.96659 3.54721,-11.13292 3.97843,-1.911 0.26076,5.57686 -0.0214,13.10495 -1.92141,51.25835 l -1.37325,27.57559 h 3.79415 c 2.08677,0 3.79412,-0.3275 3.79412,-0.72789 0,-3.85757 3.52694,-70.9557 3.97317,-75.58743 1.02451,-10.63411 3.62773,-12.08513 4.20379,-2.34314 0.13276,2.24509 -0.50306,18.50782 -1.53715,39.31715 -0.96997,19.51856 -1.76357,36.35527 -1.76357,37.41486 0,1.19722 1.35363,1.92645 3.57574,1.92645 h 3.57572 l 1.99713,-40.74999 c 2.17064,-44.2909 2.40042,-55.69667 1.3146,-65.255209 -1.54322,-13.585108 -5.72007,-16.381169 -9.46518,-6.336064 l -2.11503,5.672972 -1.14385,-4.68297 c -2.10818,-8.630938 -5.87053,-8.959825 -8.46601,-0.740156 l -1.20423,3.813741 0.18897,-3.878316 c 0.18358,-3.768461 0.0841,-3.863251 -3.51333,-3.349215 l -3.70223,0.528902 -2.83068,57.488135 -2.83068,57.48807 h 3.70826 3.70826 z m -8.07749,-92.089763 c 3.38484,-7.591224 3.57589,-29.993912 0.29577,-34.686469 -3.41074,-4.87948 -7.07881,10.671092 -6.16447,26.133964 0.31385,5.30787 2.18078,11.114671 3.57614,11.12321 0.62873,0.0039 1.6604,-1.152955 2.29256,-2.570705 z"
       style="fill:#000000;stroke-width:0.806948" />
  </g>
</svg>
